<?xml version="1.0" encoding="utf-8"?>
<!-- Generator: Adobe Illustrator 19.2.1, SVG Export Plug-In . SVG Version: 6.00 Build 0)  -->
<svg version="1.1" id="Layer_1" xmlns="http://www.w3.org/2000/svg" xmlns:xlink="http://www.w3.org/1999/xlink" x="0px" y="0px"
	 viewBox="0 0 160 160" style="enable-background:new 0 0 160 160;" xml:space="preserve">
<style type="text/css">
	.st0{fill:#FFFFFF;}
</style>
<g>
	<path class="st0" d="M144,79.6c-0.1-0.1-7.1-9.5-18.6-18.9c-5.7-4.7-12.6-9.5-20.2-13c-7.7-3.6-16.2-6-25.2-6c-9,0-17.5,2.4-25.2,6
		c-11.5,5.4-21.1,13.3-28,20c-6.8,6.6-10.8,11.9-10.8,12c-0.7,0.9-0.6,2.1,0.1,2.9c0.1,0.1,7.1,8.7,18.6,17.4c1,0.8,2.5,0.6,3.3-0.5
		c0.8-1,0.6-2.5-0.5-3.3c-5.5-4.2-10-8.4-13-11.5C23,83.2,21.8,81.9,21,81c2.4-3,8.6-10.1,17.1-17c5.5-4.5,11.9-8.9,19-12.1
		c7.1-3.3,14.8-5.4,22.8-5.4c8.1,0,16,2.2,23.2,5.6c10.8,5,20.1,12.7,26.7,19.1c3.3,3.2,5.9,6.1,7.7,8.1c0.6,0.7,1.1,1.3,1.5,1.8
		c-1.8,2-5.6,6.1-10.8,10.6c-7.4,6.3-17.6,13.6-29.3,17.8l0,0l-0.1,0c-0.5,0.2-3,1.1-6.3,2c-2.6,0.7-5.6,1.5-8.4,1.9l3-14.6
		c0.8-0.3,1.6-0.7,2.4-1.1c1.4,0.9,3.3,2.2,5.2,3.5c2.1,1.4,3.8,2.5,5,3.3c0.7,0.5,1.4,0.9,1.9,1.1c0.5,0.3,1.4,0.8,2.4,0.8
		c0.9,0,1.8-0.4,2.4-1c0.9-0.9,1.7-2.6,0.1-5.1c-0.3-0.4-0.7-1-1.3-1.8c-0.9-1.3-2.2-2.9-3.8-4.9c-1.6-2-3.2-4-4.2-5.3
		c0.3-0.7,0.5-1.5,0.7-2.2c0.9-0.3,2.2-0.6,3.5-1c1.7-0.5,3-0.9,4-1.2c1.6-0.5,4.2-1.4,4.1-4.3c-0.2-2.8-2.8-3.4-4.5-3.8
		c-1-0.2-2.5-0.5-4.1-0.8c-1.3-0.2-2.6-0.5-3.7-0.6c-0.3-0.8-0.7-1.6-1.1-2.3c1.3-1.9,2.5-3.6,3.5-5.2c1.4-2.1,2.5-3.8,3.3-5
		c0.5-0.8,0.9-1.4,1.1-1.9l0,0c1.1-1.9,1-3.6-0.3-4.9c-0.7-0.7-1.5-1-2.4-1c-1.2,0-2.2,0.6-2.6,0.9l0,0c-0.4,0.3-1,0.7-1.8,1.3
		c-1.2,0.9-2.7,2.1-4.9,3.7c-2,1.6-4,3.2-5.2,4.2c-0.7-0.3-1.5-0.5-2.2-0.7c-0.3-1-0.6-2.3-1-3.5c-0.5-1.7-0.9-3-1.2-4l0,0
		c-0.6-1.6-1.4-4.1-4.1-4.1l-0.2,0c-2.8,0.2-3.4,2.8-3.8,4.5c-0.2,0.9-0.5,2.2-0.8,4.1c-0.2,1.3-0.5,2.6-0.6,3.7
		c-0.8,0.3-1.6,0.7-2.3,1.1c-1.4-0.9-3.3-2.2-5.2-3.5c-2-1.3-3.7-2.5-5-3.3c-0.8-0.5-1.4-0.9-1.9-1.1l0,0C58,57,57.1,56.6,56,56.6
		c-0.9,0-1.8,0.4-2.4,1c-0.9,0.9-1.7,2.6-0.1,5.1l0,0c0.3,0.5,0.7,1,1.3,1.8c0.9,1.2,2.2,2.8,3.7,4.9c1.5,1.9,3.1,3.9,4.2,5.3
		c-0.3,0.7-0.5,1.4-0.7,2.2c-1.3,0.4-2.5,0.7-3.5,1c-0.8,0.2-1.6,0.5-2.4,0.7c-0.7,0.2-1.2,0.4-1.7,0.5c-1.6,0.5-4.2,1.4-4.1,4.3
		c0.1,2.8,2.8,3.4,4.5,3.8c1.1,0.2,2.4,0.5,4.1,0.8c1.3,0.2,2.7,0.5,3.7,0.6c0.3,0.8,0.7,1.6,1.1,2.3c-1,1.5-2.3,3.3-3.5,5.2
		c-1.3,2-2.5,3.7-3.3,5c-0.5,0.8-0.9,1.4-1.1,1.9c-1.1,2-1,3.6,0.3,4.9c0.9,0.9,2.6,1.7,5.1,0.1c0.4-0.3,1-0.7,1.8-1.3
		c1.2-0.9,2.8-2.1,4.9-3.7c3-2.4,6-4.8,6.9-5.5l0,0c0.4-0.4,0.7-0.9,0.7-1.5v-0.2c0-1-0.8-1.9-1.9-1.9c-0.7,0-1.4,0.4-1.7,1
		c-1.2,1-3.8,3-6.3,5c-2.1,1.6-3.6,2.8-4.8,3.7c-0.7,0.5-1.2,0.9-1.6,1.2l0,0l0,0l0,0c0.2-0.4,0.5-0.9,1-1.7c0.8-1.3,2-3,3.3-4.9
		c1.6-2.3,3.2-4.6,4.2-6.1c0.4-0.6,0.4-1.5,0-2.1c-0.7-1.1-1.3-2.3-1.7-3.5c-0.2-0.7-0.8-1.2-1.5-1.3c-0.7-0.1-2.7-0.5-4.7-0.8
		c-1.6-0.3-3-0.6-4-0.8c-0.4-0.1-1-0.2-1.4-0.4c0.4-0.2,0.9-0.4,1.3-0.5c0.4-0.1,0.9-0.3,1.5-0.5c0.7-0.2,1.5-0.4,2.3-0.7
		c1.3-0.4,2.8-0.8,4.6-1.3c0.7-0.2,1.3-0.8,1.4-1.5c0.2-1.3,0.6-2.4,1.1-3.6c0.3-0.6,0.2-1.4-0.3-1.9c-1-1.3-3-3.7-4.8-6.1
		c-1.6-2-2.8-3.6-3.7-4.8c-0.5-0.7-0.9-1.2-1.2-1.6l0,0l0,0l0,0c0.4,0.2,1,0.6,1.7,1c1.3,0.8,3,1.9,4.9,3.3c2.3,1.6,4.6,3.1,5.9,4.1
		l0.2,0.1c0.6,0.4,1.5,0.4,2.1,0c1.1-0.7,2.4-1.4,3.6-1.7c0.7-0.2,1.2-0.8,1.3-1.5l0,0c0.2-1.1,0.5-2.9,0.8-4.7
		c0.3-1.8,0.6-3.1,0.8-3.9c0.1-0.4,0.2-1,0.3-1.4c0.2,0.4,0.4,0.9,0.5,1.3l0,0c0.3,0.9,0.7,2.2,1.2,3.8c0.5,1.7,0.9,3.3,1.2,4.4
		l0,0.2c0.2,0.7,0.8,1.2,1.5,1.4c1.3,0.2,2.5,0.6,3.6,1.1c0.6,0.3,1.4,0.2,1.9-0.3c0.9-0.7,3.5-2.8,6.1-4.8c2.1-1.6,3.7-2.8,4.8-3.7
		c0.8-0.6,1.3-0.9,1.6-1.1l0,0l0,0l0,0l0,0c-0.2,0.4-0.5,0.9-1,1.7c-0.8,1.2-1.9,2.8-3.3,4.9c-1.2,1.8-2.6,3.9-4.2,6.1
		c-0.4,0.6-0.4,1.5,0,2.1c0.7,1.1,1.3,2.3,1.7,3.5c0.2,0.7,0.8,1.2,1.5,1.3c1.2,0.2,3,0.5,4.7,0.8c1.6,0.3,3,0.6,4,0.8
		c0.4,0.1,1,0.2,1.4,0.4c-0.4,0.2-0.9,0.4-1.3,0.5c-0.9,0.3-2.2,0.7-3.8,1.2c-1.9,0.6-3.9,1.1-4.6,1.3c-0.7,0.2-1.3,0.8-1.4,1.5
		c-0.2,1.2-0.6,2.4-1.1,3.6c-0.3,0.6-0.2,1.4,0.3,1.9c0.8,1,2.8,3.5,4.8,6.1c1.5,1.9,2.8,3.6,3.7,4.8c0.6,0.8,0.9,1.3,1.2,1.6l0,0
		l0,0c-0.4-0.2-1-0.6-1.7-1c-1.2-0.8-2.9-1.9-4.9-3.3c-2.3-1.5-4.7-3.2-6.1-4.2c-0.6-0.4-1.5-0.4-2.1,0c-1.1,0.7-2.3,1.3-3.5,1.7
		c-0.7,0.2-1.1,0.7-1.3,1.4L79.6,116c-0.2,1,0.4,2,1.4,2.2c0.1,0,0.3,0,0.6,0c0.3,0,0.6,0,0.7,0c4.1-0.4,8.6-1.5,12.1-2.5
		c3.5-1,6-1.9,6.1-1.9c12.7-4.5,23.5-12.3,31.2-19c7.7-6.7,12.2-12.2,12.2-12.3C144.6,81.7,144.6,80.5,144,79.6z"/>
	<polygon class="st0" points="100.5,113.8 100.5,113.8 100.5,113.8 	"/>
</g>
</svg>
